# xmcd CD database file
#
# Track frame offsets:
#	150
#	40350
#	70183
#	128185
#	165578
#	212686
#	251886
#
# Disc length: 4269 seconds
#
# Revision: 0
# Processed by: cddbd v1.5.1PL2 Copyright (c) Steve Scherf et al.
# Submitted via: CDex 1.51
#
DISCID=6410ab07
DTITLE=Hancock Brecker Hargrove - Directions in Music Celebrating Miles Davis and John Coltrane
DYEAR=1900
DGENRE=Jazz
TTITLE0=The sorcerer
TTITLE1=The poet
TTITLE2=So what impressions
TTITLE3=Naima
TTITLE4=Transition
TTITLE5=My ship
TTITLE6=D Trane
EXTD=
EXTT0=
EXTT1=
EXTT2=
EXTT3=
EXTT4=
EXTT5=
EXTT6=
PLAYORDER=
